<?xml version="1.0" encoding="iso-8859-1"?>
<!-- Uploaded to: SVG Repo, www.svgrepo.com, Generator: SVG Repo Mixer Tools -->
<svg height="800px" width="800px" version="1.1" id="Layer_1" xmlns="http://www.w3.org/2000/svg" xmlns:xlink="http://www.w3.org/1999/xlink" 
	 viewBox="0 0 512.001 512.001" xml:space="preserve">
<path style="fill:#EFEFEE;" d="M457.917,8.188H54.084c-25.347,0-45.896,20.549-45.896,45.896v403.831
	c0,25.348,20.549,45.896,45.896,45.896h403.831c25.348,0,45.897-20.549,45.897-45.896V54.084
	C503.813,28.737,483.265,8.188,457.917,8.188z"/>
<path style="fill:#394049;" d="M490.371,21.631L21.632,490.37c8.306,8.306,19.779,13.443,32.454,13.443h403.831
	c25.348,0,45.897-20.549,45.897-45.896V54.084C503.813,41.41,498.676,29.937,490.371,21.631z"/>
<path style="opacity:0.15;enable-background:new    ;" d="M195.008,136.751h-37.151V99.6c0-9.044-7.332-16.376-16.376-16.376
	c-9.044,0-16.376,7.332-16.376,16.376v37.151H87.956c-9.044,0-16.376,7.332-16.376,16.376c0,9.044,7.332,16.376,16.376,16.376
	h37.151v37.151c0,9.044,7.332,16.376,16.376,16.376c9.044,0,16.376-7.332,16.376-16.376v-37.151h37.151
	c9.044,0,16.376-7.332,16.376-16.376C211.383,144.082,204.051,136.751,195.008,136.751z"/>
<path style="fill:#4A5058;" d="M200.832,130.925h-37.151V93.775c0-9.044-7.332-16.376-16.376-16.376
	c-9.044,0-16.376,7.332-16.376,16.376v37.151H93.78c-9.044,0-16.376,7.332-16.376,16.376s7.332,16.376,16.376,16.376h37.151v37.151
	c0,9.044,7.332,16.376,16.376,16.376c9.044,0,16.376-7.332,16.376-16.376v-37.151h37.151c9.044,0,16.376-7.332,16.376-16.376
	S209.876,130.925,200.832,130.925z"/>
<path style="opacity:0.15;enable-background:new    ;" d="M205.881,158.627h-42.22v5.049h37.171c5.815,0,10.909-3.04,13.815-7.609
	C212.11,157.681,209.109,158.627,205.881,158.627z M135.98,88.727c0-3.228,0.948-6.23,2.56-8.766c-4.569,2.905-7.609,8-7.609,13.815
	v37.134h5.049V88.727z M135.98,195.778v-37.151H98.829c-9.044,0-16.376-7.332-16.376-16.376c0-3.228,0.948-6.23,2.56-8.766
	c-4.569,2.905-7.609,8-7.609,13.815c0,9.044,7.332,16.376,16.376,16.376h37.151v37.151c0,9.044,7.332,16.376,16.376,16.376
	c5.815,0,10.909-3.04,13.815-7.609c-2.536,1.612-5.538,2.56-8.766,2.56C143.311,212.153,135.98,204.822,135.98,195.778z"/>
<g style="opacity:0.15;">
	<path d="M410.582,388.714H303.529c-9.044,0-16.376-7.332-16.376-16.376s7.332-16.375,16.376-16.375h107.052
		c9.044,0,16.376,7.332,16.376,16.375S419.625,388.714,410.582,388.714z"/>
</g>
<path style="fill:#FFFFFF;" d="M418.226,381.07H311.173c-9.044,0-16.376-7.332-16.376-16.376c0-9.044,7.332-16.375,16.376-16.375
	h107.052c9.044,0,16.376,7.332,16.376,16.375C434.601,373.738,427.269,381.07,418.226,381.07z"/>
<path style="opacity:0.15;enable-background:new    ;" d="M422.729,376.567H315.677c-9.044,0-16.376-7.332-16.376-16.376
	c0-3.37,1.021-6.502,2.766-9.106c-4.383,2.939-7.27,7.936-7.27,13.609c0,9.044,7.332,16.376,16.376,16.376h107.052
	c5.674,0,10.67-2.886,13.609-7.27C429.23,375.546,426.099,376.567,422.729,376.567z"/>
<path style="opacity:0.15;enable-background:new    ;" d="M480.027,481.702H76.196c-25.348,0-45.896-20.549-45.896-45.896V31.974
	c0-6.959,1.557-13.55,4.328-19.458C19.009,19.838,8.188,35.694,8.188,54.084v403.831c0,25.348,20.548,45.896,45.896,45.896h403.831
	c18.39,0,34.246-10.82,41.57-26.438C493.577,480.145,486.985,481.702,480.027,481.702z"/>
<path d="M457.917,0H54.086C24.263,0,0.001,24.262,0.001,54.085v403.831c0,29.822,24.262,54.085,54.085,54.085h403.831
	c29.822,0,54.084-24.262,54.084-54.085V54.085C512.001,24.262,487.739,0,457.917,0z M16.376,457.916V54.085
	c0-20.794,16.916-37.71,37.71-37.71h403.831c7.438,0,14.374,2.174,20.224,5.906L22.282,478.14
	C18.55,472.29,16.376,465.354,16.376,457.916z M495.625,457.916c0,20.793-16.916,37.71-37.708,37.71H54.086
	c-7.438,0-14.374-2.174-20.224-5.906L489.719,33.861c3.733,5.849,5.906,12.785,5.906,20.224V457.916z M200.832,122.738h-28.963
	V93.775c0-13.545-11.019-24.563-24.563-24.563c-13.545,0-24.563,11.019-24.563,24.563v28.963H93.78
	c-13.545,0-24.563,11.019-24.563,24.563c0,13.545,11.019,24.563,24.563,24.563h28.963v28.963c0,13.545,11.019,24.563,24.563,24.563
	c13.545,0,24.563-11.019,24.563-24.563v-28.963h28.963c13.545,0,24.563-11.019,24.563-24.563
	C225.395,133.757,214.377,122.738,200.832,122.738z M200.832,155.489h-37.151c-4.522,0-8.188,3.666-8.188,8.188v37.151
	c0,4.515-3.672,8.188-8.188,8.188s-8.188-3.672-8.188-8.188v-37.151c0-4.522-3.666-8.188-8.188-8.188H93.78
	c-4.515,0-8.188-3.672-8.188-8.188s3.672-8.188,8.188-8.188h37.151c4.522,0,8.188-3.666,8.188-8.188V93.775
	c0-4.515,3.672-8.188,8.188-8.188s8.188,3.672,8.188,8.188v37.151c0,4.522,3.666,8.188,8.188,8.188h37.151
	c4.515,0,8.188,3.672,8.188,8.188S205.347,155.489,200.832,155.489z M418.226,340.131H311.173
	c-13.545,0-24.563,11.019-24.563,24.563c0,13.545,11.019,24.563,24.563,24.563h107.052c13.545,0,24.563-11.018,24.563-24.563
	C442.789,351.15,431.769,340.131,418.226,340.131z M418.226,372.882H311.173c-4.515,0-8.188-3.673-8.188-8.188
	s3.673-8.188,8.188-8.188h107.052c4.515,0,8.188,3.672,8.188,8.188S422.74,372.882,418.226,372.882z"/>
</svg>