<?xml version="1.0" encoding="iso-8859-1"?>
<!-- Uploaded to: SVG Repo, www.svgrepo.com, Generator: SVG Repo Mixer Tools -->
<svg version="1.1" id="Layer_1" xmlns="http://www.w3.org/2000/svg" xmlns:xlink="http://www.w3.org/1999/xlink" 
	 viewBox="0 0 512 512" xml:space="preserve">
<polygon style="fill:#FF6638;" points="503.83,10.894 503.83,65.362 449.362,87.149 471.149,10.894 "/>
<g>
	<polygon style="fill:#FF883E;" points="471.149,10.894 471.149,87.149 206.979,65.362 206.979,10.894 	"/>
	<polygon style="fill:#FF883E;" points="503.83,65.362 503.83,119.83 449.362,141.617 471.149,65.362 	"/>
</g>
<polygon style="fill:#FFAB58;" points="471.149,65.362 471.149,141.617 206.979,119.83 206.979,65.362 "/>
<polygon style="fill:#FF6638;" points="503.83,119.83 503.83,174.298 449.362,196.085 471.149,119.83 "/>
<g>
	<polygon style="fill:#FF883E;" points="471.149,119.83 471.149,196.085 206.979,174.298 206.979,119.83 	"/>
	<polygon style="fill:#FF883E;" points="503.83,174.298 503.83,228.766 449.362,250.553 471.149,174.298 	"/>
</g>
<polygon style="fill:#FFAB58;" points="471.149,174.298 471.149,250.553 206.979,228.766 206.979,174.298 "/>
<polygon style="fill:#FF6638;" points="503.83,228.766 503.83,283.234 449.362,305.021 471.149,228.766 "/>
<g>
	<polygon style="fill:#FF883E;" points="471.149,228.766 471.149,305.021 206.979,283.234 206.979,228.766 	"/>
	<polygon style="fill:#FF883E;" points="503.83,283.234 503.83,337.702 449.362,359.489 471.149,283.234 	"/>
</g>
<polygon style="fill:#FFAB58;" points="471.149,283.234 471.149,359.489 206.979,337.702 206.979,283.234 "/>
<polygon style="fill:#FF6638;" points="503.83,337.702 503.83,392.17 449.362,413.957 471.149,337.702 "/>
<g>
	<polygon style="fill:#FF883E;" points="471.149,337.702 471.149,413.957 206.979,392.17 206.979,337.702 	"/>
	<polygon style="fill:#FF883E;" points="503.83,392.17 503.83,446.638 449.362,468.426 471.149,392.17 	"/>
</g>
<polygon style="fill:#FFAB58;" points="471.149,392.17 471.149,468.426 206.979,446.638 206.979,392.17 "/>
<polygon style="fill:#FF6638;" points="503.83,446.638 503.83,501.106 471.149,501.106 438.468,473.872 471.149,446.638 "/>
<rect x="206.979" y="446.638" style="fill:#FF883E;" width="264.17" height="54.468"/>
<path style="fill:#FF6638;" d="M206.979,103.489l-61.172,198.809l61.172,198.809c109.799,0,198.809-89.01,198.809-198.809
	S316.778,103.489,206.979,103.489z"/>
<path style="fill:#FF883E;" d="M8.17,302.298c0,109.799,89.01,198.809,198.809,198.809V103.489
	C97.18,103.489,8.17,192.499,8.17,302.298z"/>
<path style="fill:#FFAB58;" d="M208.7,136.181v332.234c90.951-0.926,164.406-74.948,164.406-166.117S299.651,137.107,208.7,136.181z
	"/>
<path style="fill:#FFCD71;" d="M208.7,136.181c72.9,1.155,131.726,75.09,131.726,166.117S281.6,467.26,208.7,468.415
	c-0.566,0.011-1.144,0.011-1.721,0.011c-91.746,0-166.128-74.382-166.128-166.128S115.233,136.17,206.979,136.17
	C207.556,136.17,208.133,136.17,208.7,136.181z"/>
<path style="fill:#FF6638;" d="M238.723,188.863c-4.815-1.285-9.663-1.547-14.303-0.893L208.34,302.276l48.248-54.74
	c3.519-4.031,6.209-8.9,7.68-14.423C269.443,213.842,258.004,194.037,238.723,188.863z"/>
<path style="fill:#FF883E;" d="M227.154,188.863c11.928,5.174,19.009,24.979,15.807,44.25c-0.915,5.523-2.582,10.393-4.76,14.423
	l-29.859,54.74l-21.787-72.617l21.787-35.263c4.728-3.388,10.24-5.621,16.079-6.427C225.324,188.165,226.239,188.47,227.154,188.863
	z"/>
<path style="fill:#FFAB58;" d="M208.34,194.399v107.88l-48.242-54.74c-3.522-4.032-6.216-8.9-7.69-14.424
	c-5.169-19.275,6.27-39.079,25.546-44.248C188.819,185.954,199.85,188.32,208.34,194.399z"/>
<path style="fill:#FF6638;" d="M304.526,369.619c2.855-4.085,4.758-8.55,5.731-13.136l-101.914-54.204l34.937,64.06
	c2.584,4.685,6.24,8.879,10.926,12.15C270.546,389.944,293.069,385.968,304.526,369.619z"/>
<path style="fill:#FF883E;" d="M308.482,358.749c-8.943,9.439-29.974,9.319-46.987-0.281c-4.877-2.748-8.883-5.981-11.925-9.407
	l-41.227-46.78l75.689,4.363l25.685,32.534c1.566,5.602,1.78,11.545,0.54,17.308C309.763,357.267,309.164,358.023,308.482,358.749z"
	/>
<path style="fill:#FFAB58;" d="M309.714,339.176L208.34,302.279l67.939-26.611c4.993-1.93,10.489-2.796,16.185-2.293
	c19.881,1.735,34.577,19.258,32.842,39.139C324.327,323.721,318.331,333.276,309.714,339.176z"/>
<path style="fill:#FF6638;" d="M112.155,369.619c-2.855-4.085-4.758-8.55-5.731-13.136l101.914-54.204l-34.937,64.06
	c-2.584,4.685-6.24,8.879-10.926,12.15C146.135,389.944,123.612,385.968,112.155,369.619z"/>
<path style="fill:#FF883E;" d="M108.199,358.749c8.943,9.439,29.974,9.319,46.987-0.281c4.877-2.748,8.883-5.981,11.925-9.407
	l41.227-46.78l-75.689,4.363l-25.685,32.534c-1.567,5.602-1.78,11.545-0.54,17.308C106.918,357.267,107.517,358.023,108.199,358.749
	z"/>
<path style="fill:#FFAB58;" d="M106.967,339.176l101.374-36.897l-67.939-26.611c-4.993-1.93-10.489-2.796-16.185-2.293
	c-19.881,1.735-34.577,19.258-32.842,39.139C92.354,323.721,98.35,333.276,106.967,339.176z"/>
<path d="M503.83,2.723H206.979c-4.513,0-8.17,3.658-8.17,8.17v84.601C88.454,99.802,0,190.906,0,302.298
	c0,114.129,92.85,206.979,206.979,206.979H503.83c4.513,0,8.17-3.658,8.17-8.17V10.894C512,6.381,508.343,2.723,503.83,2.723z
	 M215.149,73.532H495.66v38.128h-208.08c-22.41-9.51-46.833-15.165-72.431-16.165L215.149,73.532L215.149,73.532z M495.66,128
	v38.128H362.72c-12.853-14.682-27.737-27.545-44.22-38.128H495.66z M495.66,182.468v38.128h-98.525
	c-5.826-13.508-13.042-26.282-21.481-38.128H495.66z M495.66,236.936v38.128h-83.495c-1.734-13.134-4.704-25.883-8.79-38.128H495.66
	z M413.671,291.404h81.989v38.128h-83.495c1.178-8.914,1.793-18.003,1.793-27.234C413.957,298.644,413.859,295.012,413.671,291.404z
	 M409.328,345.872h86.332V384h-98.525C402.378,371.845,406.483,359.092,409.328,345.872z M389.222,400.34H495.66v38.128H362.72
	C372.908,426.832,381.817,414.05,389.222,400.34z M495.66,19.064v38.128H215.149V19.064H495.66z M16.34,302.298
	c0-105.118,85.52-190.638,190.638-190.638s190.638,85.52,190.638,190.638s-85.52,190.638-190.638,190.638
	S16.34,407.416,16.34,302.298z M287.579,492.936c21.905-9.297,41.886-22.268,59.176-38.128H495.66v38.128H287.579z"/>
<path d="M123.503,265.235c-24.333,2.129-42.397,23.657-40.269,47.99c0.996,11.375,6.269,21.767,14.691,29.243
	c-1.647,11.14,0.992,22.49,7.543,31.844c8.284,11.828,21.859,18.892,36.317,18.893c9.115,0,17.891-2.771,25.378-8.014
	c5.604-3.924,10.11-8.943,13.411-14.943l19.597-35.927v14.409c0,25.063,3.792,49.769,11.273,73.43
	c1.101,3.484,4.319,5.709,7.788,5.709c0.816,0,1.646-0.123,2.465-0.382c4.302-1.361,6.688-5.95,5.328-10.253
	c-6.975-22.065-10.512-45.114-10.512-68.505v-14.409l19.611,35.953c3.287,5.974,7.793,10.994,13.397,14.917
	c7.488,5.243,16.263,8.014,25.377,8.014c14.457,0,28.034-7.062,36.318-18.893c6.55-9.354,9.19-20.704,7.543-31.844
	c8.422-7.475,13.695-17.867,14.691-29.243c2.128-24.332-15.936-45.861-40.268-47.99c-6.773-0.592-13.532,0.365-19.879,2.827
	l-36.519,14.303l25.95-29.445c4.49-5.13,7.665-11.082,9.436-17.692c6.323-23.593-7.73-47.931-31.322-54.252
	c-3.759-1.008-7.624-1.519-11.486-1.519c-7.402,0-14.571,1.826-21.018,5.318c-6.447-3.494-13.616-5.318-21.018-5.318
	c-3.862,0-7.727,0.511-11.486,1.519c-23.592,6.322-37.645,30.66-31.322,54.253c1.771,6.608,4.946,12.56,9.455,17.712l25.931,29.425
	l-36.544-14.314C137.041,265.602,130.269,264.643,123.503,265.235z M166.242,362.397c-2.071,3.766-4.915,6.931-8.452,9.408
	c-4.727,3.309-10.261,5.059-16.002,5.059c-9.134,0-17.708-4.459-22.935-11.924c-4.815-6.877-6.281-15.467-4.021-23.566
	c0.938-3.367-0.368-6.959-3.252-8.935c-6.937-4.753-11.335-12.276-12.067-20.638c-1.343-15.358,10.057-28.944,25.415-30.288
	c0.819-0.071,1.649-0.108,2.467-0.108c3.451,0,6.834,0.633,10.026,1.872l59.307,23.23L166.242,362.397z M279.234,283.286
	c3.981-1.544,8.24-2.148,12.52-1.772c15.357,1.343,26.758,14.93,25.414,30.286c-0.732,8.363-5.13,15.885-12.067,20.638
	c-2.884,1.976-4.191,5.568-3.252,8.935c2.259,8.099,0.794,16.689-4.021,23.566c-5.229,7.466-13.801,11.924-22.933,11.924
	c-5.742,0-11.278-1.75-16.004-5.059c-3.537-2.477-6.38-5.642-8.438-9.382l-30.5-55.917L279.234,283.286z M160.296,230.999
	c-3.989-14.89,4.879-30.252,19.769-34.241c2.381-0.638,4.823-0.962,7.256-0.962c5.848,0,11.471,1.813,16.264,5.242
	c2.842,2.035,6.666,2.035,9.509,0c4.792-3.428,10.416-5.242,16.264-5.242c2.434,0,4.876,0.324,7.256,0.962
	c14.89,3.989,23.759,19.349,19.769,34.24c-1.118,4.172-3.12,7.927-5.93,11.139l-42.113,47.786l-42.095-47.764
	C163.417,238.925,161.415,235.17,160.296,230.999z"/>
<path d="M381.277,302.298C381.277,206.19,303.088,128,206.979,128S32.681,206.19,32.681,302.298
	c0,40.231,14.039,79.485,39.527,110.531c2.865,3.488,8.013,3.992,11.499,1.13c3.488-2.863,3.994-8.011,1.131-11.499
	c-23.097-28.129-35.817-63.702-35.817-100.161c0-87.098,70.86-157.957,157.957-157.957s157.957,70.86,157.957,157.957
	s-70.86,157.957-157.957,157.957c-36.46,0-72.031-12.72-100.162-35.817c-3.485-2.863-8.634-2.358-11.499,1.13
	c-2.863,3.487-2.357,8.635,1.131,11.499c31.046,25.49,70.3,39.529,110.531,39.529C303.088,476.596,381.277,398.406,381.277,302.298z
	"/>
</svg>