<?xml version="1.0" encoding="iso-8859-1"?>
<!-- Uploaded to: SVG Repo, www.svgrepo.com, Generator: SVG Repo Mixer Tools -->
<svg height="800px" width="800px" version="1.1" id="Layer_1" xmlns="http://www.w3.org/2000/svg" xmlns:xlink="http://www.w3.org/1999/xlink" 
	 viewBox="0 0 512 512" xml:space="preserve">
<g>
	<path style="fill:#F0C419;" d="M256,512C114.847,512,0,397.153,0,256S114.847,0,256,0s256,114.847,256,256S397.153,512,256,512"/>
	<g>
		<path style="fill:#B5901A;" d="M256,0c-2.966,0-5.888,0.124-8.828,0.221v43.917c0,4.882,3.946,8.828,8.828,8.828
			s8.828-3.946,8.828-8.828V0.221C261.888,0.124,258.966,0,256,0"/>
		<path style="fill:#B5901A;" d="M430.543,68.974l-30.711,30.711c-3.452,3.452-3.452,9.039,0,12.491
			c1.721,1.721,3.981,2.586,6.241,2.586c2.251,0,4.511-0.865,6.241-2.586l30.711-30.72
			C439.009,77.158,434.842,72.991,430.543,68.974"/>
		<path style="fill:#B5901A;" d="M459.034,256c0,4.882,3.946,8.828,8.828,8.828h43.917c0.097-2.94,0.221-5.87,0.221-8.828
			c0-2.957-0.124-5.888-0.221-8.828h-43.917C462.98,247.172,459.034,251.118,459.034,256"/>
		<path style="fill:#B5901A;" d="M412.31,399.828c-3.452-3.452-9.031-3.452-12.482,0s-3.452,9.031,0,12.482l30.711,30.72
			c4.308-4.025,8.466-8.183,12.482-12.491L412.31,399.828z"/>
		<path style="fill:#B5901A;" d="M256,459.034c-4.882,0-8.828,3.946-8.828,8.828v43.917c2.94,0.097,5.862,0.221,8.828,0.221
			c2.966,0,5.888-0.124,8.828-0.221v-43.917C264.828,462.98,260.882,459.034,256,459.034"/>
		<path style="fill:#B5901A;" d="M99.69,399.828l-30.711,30.711c4.017,4.308,8.174,8.466,12.482,12.491l30.711-30.72
			c3.452-3.452,3.452-9.031,0-12.482S103.142,396.376,99.69,399.828"/>
		<path style="fill:#B5901A;" d="M0.224,264.828h43.917c4.873,0,8.828-3.946,8.828-8.828s-3.955-8.828-8.828-8.828H0.224
			c-0.106,2.94-0.221,5.87-0.221,8.828C0.004,258.957,0.118,261.888,0.224,264.828"/>
		<path style="fill:#B5901A;" d="M68.974,81.457l30.711,30.711c1.73,1.73,3.99,2.586,6.25,2.586c2.251,0,4.511-0.856,6.241-2.586
			c3.443-3.443,3.443-9.031,0-12.482l-30.72-30.711C77.158,72.991,72.991,77.158,68.974,81.457"/>
		<path style="fill:#B5901A;" d="M467.862,256c0-117.01-94.852-211.862-211.862-211.862S44.138,138.99,44.138,256
			S138.99,467.862,256,467.862S467.862,373.01,467.862,256"/>
	</g>
	<g>
		<path style="fill:#7F6012;" d="M256,105.931c-82.75,0-150.069,67.319-150.069,150.069S173.25,406.069,256,406.069
			S406.069,338.75,406.069,256S338.75,105.931,256,105.931 M256,423.724c-92.487,0-167.724-75.237-167.724-167.724
			S163.513,88.276,256,88.276S423.724,163.513,423.724,256S348.487,423.724,256,423.724"/>
		<path style="fill:#7F6012;" d="M256,105.931c-29.846,0-61.793,60.301-61.793,150.069S226.154,406.069,256,406.069
			S317.793,345.768,317.793,256S285.846,105.931,256,105.931 M256,423.724c-44.553,0-79.448-73.675-79.448-167.724
			S211.447,88.276,256,88.276S335.448,161.951,335.448,256S300.553,423.724,256,423.724"/>
		<polygon style="fill:#7F6012;" points="97.103,264.828 423.724,264.828 423.724,247.172 97.103,247.172 		"/>
		<polygon style="fill:#7F6012;" points="247.172,414.897 264.828,414.897 264.828,97.103 247.172,97.103 		"/>
	</g>
</g>
</svg>