<?xml version="1.0" encoding="iso-8859-1"?>
<!-- Uploaded to: SVG Repo, www.svgrepo.com, Generator: SVG Repo Mixer Tools -->
<svg height="800px" width="800px" version="1.1" id="Layer_1" xmlns="http://www.w3.org/2000/svg" xmlns:xlink="http://www.w3.org/1999/xlink" 
	 viewBox="0 0 512 512" xml:space="preserve">
<path style="fill:#071C23;" d="M486.715,379.122l-5.673,9.758c-9.661,16.614-31.823,23.276-47.99,12.768l-141.086-91.699
	l9.438,167.168c1.081,19.157-15.809,34.884-35.13,34.884h-11.346c-19.321,0-36.213-15.728-35.132-34.885l9.434-167.166
	l-141.08,91.697c-16.169,10.508-38.332,3.848-47.992-12.768l-5.673-9.758c-9.661-16.616-4.39-39.003,12.858-47.653L197.858,256
	L47.34,180.531c-17.244-8.648-22.518-31.037-12.858-47.653l5.673-9.757c9.661-16.614,31.823-23.276,47.992-12.768l141.08,91.697
	l-9.434-167.166C218.713,15.728,235.605,0,254.927,0h11.346c19.321,0,36.211,15.726,35.13,34.885l-9.438,167.168l141.086-91.699
	c16.166-10.508,38.329-3.848,47.99,12.768l5.673,9.757c9.661,16.615,4.388,39.004-12.86,47.653L323.336,256l150.518,75.469
	C491.102,340.118,496.375,362.506,486.715,379.122z"/>
<path style="fill:#234556;" d="M260.602,189.451c37.015,0,67.019,29.795,67.019,66.549c0,36.755-30.003,66.549-67.019,66.549
	c-37.022,0-67.029-29.794-67.029-66.549C193.573,219.245,223.578,189.451,260.602,189.451L260.602,189.451z"/>
<g>
	<path style="fill:#5B7F99;" d="M260.598,222.724c18.509,0,33.51,14.898,33.51,33.276c0,18.379-15.002,33.276-33.51,33.276
		c-18.512,0-33.515-14.897-33.515-33.276C227.083,237.621,242.087,222.724,260.598,222.724L260.598,222.724z"/>
	<path style="fill:#5B7F99;" d="M395.461,68.383c-1.922,2.98-5.165,4.606-8.476,4.606c-1.861,0-3.744-0.513-5.427-1.589
		c-13.407-8.569-27.806-15.691-42.799-21.163c-5.218-1.904-7.897-7.659-5.983-12.853c1.913-5.195,7.693-7.861,12.91-5.957
		c16.373,5.977,32.1,13.753,46.745,23.115C397.106,57.531,398.463,63.728,395.461,68.383z M346.253,76.472
		c-1.262-0.55-2.534-1.09-3.818-1.613c-5.142-2.099-11.019,0.348-13.128,5.466c-2.109,5.119,0.349,10.97,5.491,13.069
		c1.142,0.466,2.273,0.946,3.396,1.435c1.312,0.571,2.679,0.841,4.025,0.841c3.877,0,7.573-2.245,9.225-6.008
		C353.668,84.592,351.345,78.688,346.253,76.472z M173.238,476.098c-14.99-5.473-29.391-12.593-42.802-21.163
		c-4.675-2.988-10.901-1.638-13.903,3.019c-3.002,4.656-1.645,10.852,3.032,13.842c14.648,9.362,30.375,17.138,46.746,23.113
		c1.143,0.417,2.313,0.616,3.463,0.616c4.102,0,7.955-2.516,9.448-6.571C181.135,483.757,178.456,478.002,173.238,476.098z
		 M177.2,432.94c-1.142-0.466-2.273-0.946-3.396-1.435c-5.091-2.218-11.025,0.098-13.25,5.167c-2.226,5.07,0.098,10.975,5.19,13.191
		c1.262,0.55,2.534,1.09,3.818,1.613c1.25,0.51,2.543,0.752,3.814,0.752c3.961,0,7.717-2.344,9.313-6.219
		C184.799,440.892,182.341,435.04,177.2,432.94z M25.942,251.107c0.269-5.526-4.011-10.223-9.561-10.492
		c-5.555-0.274-10.269,3.994-10.538,9.519C5,267.403,6.081,284.821,9.057,301.902c0.849,4.872,5.1,8.307,9.903,8.307
		c0.571,0,1.15-0.048,1.732-0.149c5.475-0.946,9.145-6.131,8.194-11.582C26.161,282.844,25.171,266.907,25.942,251.107z
		 M68.062,276.684c-0.61-5.498-5.591-9.471-11.105-8.859c-5.524,0.607-9.508,5.556-8.899,11.056
		c0.151,1.368,0.317,2.738,0.504,4.109c0.683,5.026,5.001,8.674,9.958,8.674c0.45,0,0.905-0.03,1.362-0.092
		c5.507-0.742,9.366-5.788,8.621-11.271C68.341,279.095,68.195,277.888,68.062,276.684z M502.943,224.433
		c-0.949-5.452-6.162-9.104-11.634-8.159c-5.475,0.946-9.145,6.131-8.194,11.582c2.721,15.622,3.712,31.56,2.943,47.373
		c-0.269,5.526,4.013,10.223,9.563,10.49c0.166,0.008,0.331,0.012,0.495,0.012c5.333,0,9.781-4.173,10.042-9.532
		C506.998,258.919,505.918,241.503,502.943,224.433z M463.436,243.347c-0.745-5.482-5.813-9.323-11.322-8.582
		c-5.507,0.742-9.366,5.789-8.621,11.271c0.165,1.212,0.309,2.425,0.445,3.636c0.578,5.119,4.933,8.9,9.987,8.9
		c0.375,0,0.755-0.021,1.136-0.063c5.523-0.618,9.497-5.575,8.875-11.074C463.784,246.074,463.622,244.71,463.436,243.347z"/>
</g>
</svg>